HIERARCHY
ROOT Hips
{
  OFFSET 74.0196 97.4445 -31.1285
  CHANNELS 6 Xposition Yposition Zposition Zrotation Xrotation Yrotation
  JOINT RightUpLeg
  {
    OFFSET -8.9458 -8.66707 0.101652
    CHANNELS 3 Zrotation Xrotation Yrotation
    JOINT RightLeg
    {
      OFFSET -2.94875e-013 -44.4227 1.3727
      CHANNELS 3 Zrotation Xrotation Yrotation
      JOINT RightFoot
      {
        OFFSET 0.253549 -42.0924 -1.46059
        CHANNELS 3 Zrotation Xrotation Yrotation
        JOINT RightToes
        {
          OFFSET 0.04 -4.41509 8.4991
          CHANNELS 3 Zrotation Xrotation Yrotation
          End Site
          {
            OFFSET -0.08 -0.137448 9.77979
          }
        }
      }
    }
  }
  JOINT Spine
  {
    OFFSET -5.68434e-014 11.8905 -6.39488e-014
    CHANNELS 3 Zrotation Xrotation Yrotation
    JOINT Spine1
    {
      OFFSET 5.68434e-014 25.6574 0.127663
      CHANNELS 3 Zrotation Xrotation Yrotation
      JOINT HEad
      {
        OFFSET 4.26326e-014 8.73416 0.011341
        CHANNELS 3 Zrotation Xrotation Yrotation
        End Site
        {
          OFFSET -0.29 12.7742 2.51395
        }
      }
      JOINT LeftShoulder1
      {
        OFFSET 8.99 -0.362252 -0.22
        CHANNELS 3 Zrotation Xrotation Yrotation
        JOINT LeftArm
        {
          OFFSET 10.2827 -0.00338 0.322123
          CHANNELS 3 Zrotation Xrotation Yrotation
          JOINT LeftForeArm
          {
            OFFSET 32.7669 0.099144 -1.42434
            CHANNELS 3 Zrotation Xrotation Yrotation
            JOINT LeftHand
            {
              OFFSET 27.5643 0.085362 1.02216
              CHANNELS 3 Zrotation Xrotation Yrotation
              End Site
              {
                OFFSET 16.7443 -0.6 1.50291
              }
            }
          }
        }
      }
      JOINT RightShoulder
      {
        OFFSET -8.99 -0.362252 -0.22
        CHANNELS 3 Zrotation Xrotation Yrotation
        JOINT RightArm
        {
          OFFSET -10.2827 -0.00338 0.322123
          CHANNELS 3 Zrotation Xrotation Yrotation
          JOINT RightForeArm
          {
            OFFSET -32.8971 0.099144 -1.42434
            CHANNELS 3 Zrotation Xrotation Yrotation
            JOINT RightHand
            {
              OFFSET -27.4921 0.085362 1.02216
              CHANNELS 3 Zrotation Xrotation Yrotation
              End Site
              {
                OFFSET -16.6312 -0.6 1.50291
              }
            }
          }
        }
      }
    }
  }
  JOINT LeftUpLeg
  {
    OFFSET 8.9458 -8.66707 0.101652
    CHANNELS 3 Zrotation Xrotation Yrotation
    JOINT LeftLeg
    {
      OFFSET 7.10543e-014 -44.4227 1.3727
      CHANNELS 3 Zrotation Xrotation Yrotation
      JOINT LeftFoot
      {
        OFFSET -0.253549 -42.0924 -1.46059
        CHANNELS 3 Zrotation Xrotation Yrotation
        JOINT LeftToes
        {
          OFFSET -0.04 -4.41509 8.4991
          CHANNELS 3 Zrotation Xrotation Yrotation
          End Site
          {
            OFFSET 0.08 -0.047448 9.77979
          }
        }
      }
    }
  }
}
MOTION
Frames:	16
Frame Time:	0.0166667
3.55955 95.7325 -39.0997 5.6726 -3.0663 83.8844 -17.4257 -16.1638 -0.565069 7.88918 28.7274 2.17937 9.35811 2.42715 -0.93062 -4.64813 -15.6453 -0.202367 0.0562138 5.74277 -1.68211 -2.54554 11.171 -2.6124 10.2673 -10.2701 -21.3844 -5.03302e-021 -3.88251e-019 1.21329e-020 -67.331 3.27451 -36.2094 -12.9486 35.9716 -112.125 6.54677 9.62745 -1.04006 19.6245 -2.23402 -12.645 63.4153 -42.2779 59.6965 -26.96 18.2923 130.244 4.14936 8.62947 -33.8708 17.9397 -4.77381 -12.6325 -18.7479 46.6911 22.0812 -0.500823 23.4886 -0.0213018 25.4535 -48.201 6.45389 
3.04259 94.8883 -39.2845 6.32984 -3.57896 84.0077 -17.2907 -16.7434 -1.25187 7.91045 30.3947 2.81074 9.44836 4.5877 -1.10165 -6.43879 -22.0259 -0.262448 0.134432 6.00035 -1.86349 -2.67298 11.6347 -2.87674 10.3624 -10.2831 -20.9657 -5.03302e-021 -3.88251e-019 1.21329e-020 -67.193 2.19668 -38.4483 -12.9985 36.2794 -112.358 6.54677 9.62745 -1.04006 20.4734 -2.49599 -13.4232 63.354 -40.8352 58.655 -24.3447 18.4199 132.416 2.76368 9.05475 -31.8873 18.4468 -3.55688 -13.1528 -18.3059 47.2176 21.2235 -2.32219 26.0348 0.509083 28.2603 -51.1137 8.39029 
2.4682 93.9642 -39.551 6.99696 -4.07457 84.3138 -17.2333 -17.1649 -1.73384 8.01389 31.8662 2.97899 9.46674 6.44833 -1.24419 -8.10508 -28.0706 -0.27919 0.225726 6.28039 -2.06459 -2.75514 12.1555 -3.19909 10.2783 -10.4776 -20.6758 -5.03302e-021 -3.88251e-019 1.21329e-020 -67.2043 1.20149 -41.1143 -13.0392 36.5937 -112.489 6.54677 9.62745 -1.04006 21.2148 -2.71581 -14.0204 62.867 -39.4597 57.449 -22.3455 18.0123 134.865 2.49388 9.15885 -30.5707 18.9474 -2.17799 -13.2575 -17.0579 47.136 19.5712 -4.33857 28.9981 1.19764 33.9303 -55.3843 13.1076 
1.82786 93.0499 -39.9413 7.61649 -4.53676 84.7836 -17.2616 -17.3754 -1.99846 8.19672 32.9061 2.74456 9.36739 7.91212 -1.34121 -9.49272 -33.1 -0.302743 0.314549 6.56572 -2.2921 -2.76991 12.6971 -3.58511 10.055 -10.8187 -20.5157 -5.03302e-021 -3.88251e-019 1.21329e-020 -67.3592 0.467196 -44.1326 -13.0581 36.8885 -112.485 6.54677 9.62745 -1.04006 21.8228 -2.88447 -14.4352 61.9845 -38.1311 56.2022 -20.8665 17.1979 137.333 2.72145 9.1369 -29.597 19.4359 -0.68858 -13.0046 -15.2832 46.3437 17.5694 -6.06659 32.0032 1.89679 43.7215 -60.2069 21.9949 
1.1287 92.2379 -40.4838 8.11052 -4.93813 85.3589 -17.3717 -17.4121 -2.10626 8.36615 33.4041 2.33318 9.15979 8.8394 -1.38049 -10.4498 -36.3981 -0.399297 0.382978 6.82505 -2.53912 -2.71184 13.2013 -4.03543 9.77809 -11.2456 -20.4671 -5.03302e-021 -3.88251e-019 1.21329e-020 -67.587 0.155717 -47.371 -13.0387 37.142 -112.338 6.54677 9.62745 -1.04006 22.2892 -3.00348 -14.6976 60.7405 -36.7749 54.9934 -19.8158 16.1071 139.607 2.97397 9.11007 -28.7269 19.8712 0.810911 -12.5114 -13.3739 44.878 15.6788 -7.06086 34.5827 2.39216 58.0615 -64.0479 35.6303 
0.386925 91.6325 -41.2015 8.3846 -5.2383 85.9493 -17.5576 -17.3532 -2.13712 8.3632 33.2789 2.0514 8.94079 9.09351 -1.36693 -10.7987 -37.2534 -0.597396 0.41806 7.02102 -2.79513 -2.59486 13.5945 -4.53866 9.54724 -11.6767 -20.4882 -5.03302e-021 -3.88251e-019 1.21329e-020 -67.7702 0.354333 -50.6329 -12.9705 37.3488 -112.073 6.54677 9.62745 -1.04006 22.6245 -3.0849 -14.8635 59.1684 -35.2621 53.8477 -19.0947 14.8839 141.567 2.97214 9.13871 -27.8798 20.1601 2.1902 -11.9142 -11.6791 42.8702 14.1729 -7.0824 36.295 2.50064 73.7719 -65.6125 50.9759 
-0.373501 91.3352 -42.1042 8.34565 -5.38749 86.4346 -17.8193 -17.2875 -2.1371 8.04263 32.4537 2.14051 8.86418 8.58417 -1.31991 -10.3359 -35.0433 -0.860688 0.403791 7.11392 -3.04246 -2.45083 13.7967 -5.0633 9.43283 -12.0198 -20.5205 -5.03302e-021 -3.88251e-019 1.21329e-020 -67.7993 1.03397 -53.6698 -12.8613 37.5315 -111.746 6.54677 9.62745 -1.04006 22.8579 -3.14952 -15.0081 57.3005 -33.4191 52.7442 -18.6055 13.6859 143.164 2.57553 9.24408 -27.0831 20.1734 3.32547 -11.3246 -10.4216 40.4839 13.0587 -6.23412 36.8029 2.19822 85.0138 -65.2705 62.2788 
-1.12486 91.4209 -43.1833 7.92563 -5.33854 86.6854 -18.1698 -17.2845 -2.0956 7.36157 30.8531 2.61439 9.08205 7.32338 -1.25985 -8.90388 -29.372 -1.14047 0.320039 7.06886 -3.25755 -2.3192 13.7376 -5.55844 9.43911 -12.1905 -20.5027 -5.03302e-021 -3.88251e-019 1.21329e-020 -67.642 2.05232 -56.2056 -12.7454 37.7456 -111.433 6.54677 9.62745 -1.04006 23.033 -3.22281 -15.2129 55.1828 -31.0599 51.6401 -18.2642 12.6723 144.364 1.69085 9.43556 -26.3609 19.7921 4.12034 -10.7939 -9.69325 37.88 12.1396 -4.93433 35.9346 1.65541 88.9978 -64.3645 66.7796 
-1.84161 91.91 -44.4087 7.1086 -5.06228 86.6008 -18.6356 -17.3767 -1.96991 6.42111 28.4516 3.18042 9.69822 5.45326 -1.19562 -6.49809 -20.327 -1.45664 0.148825 6.86624 -3.4191 -2.22982 13.3784 -5.96797 9.49127 -12.1367 -20.3846 -5.03302e-021 -3.88251e-019 1.21329e-020 -67.3816 3.20399 -57.9664 -12.6744 38.0704 -111.224 6.54677 9.62745 -1.04006 23.1991 -3.32837 -15.5463 52.9114 -28.0502 50.5026 -18.0016 11.9964 145.104 0.218368 9.72454 -25.6319 18.9693 4.50758 -10.3042 -9.48689 35.2255 11.1713 -3.71436 33.7241 1.12673 86.1689 -63.5609 64.914 
-2.50441 92.7485 -45.7247 5.95365 -4.55322 86.1489 -19.2527 -17.5886 -1.74338 5.43561 25.4243 3.32061 10.7425 3.20114 -1.12042 -3.32484 -8.83848 -1.89874 -0.138835 6.51061 -3.51813 -2.18731 12.7338 -6.2532 9.45413 -11.8654 -20.1361 -5.03302e-021 -3.88251e-019 1.21329e-020 -67.1925 4.2841 -58.7191 -12.6961 38.5867 -111.223 6.54677 9.62745 -1.04006 23.3946 -3.47965 -16.0386 50.6784 -24.4008 49.3225 -17.7449 11.8126 145.299 -1.91101 10.1092 -24.6827 17.7754 4.44521 -9.78819 -9.7392 32.7236 10.0176 -2.99743 30.4084 0.797422 77.9963 -62.5881 58.0829 
-3.09397 93.8135 -47.0494 4.58784 -3.86815 85.3629 -19.9985 -18.0152 -1.46674 4.64783 22.3302 2.54805 12.1314 0.779453 -1.01338 0.214317 3.2521 -2.53866 -0.480985 6.04064 -3.54404 -2.15411 11.8878 -6.41086 9.17866 -11.4628 -19.7505 -5.03302e-021 -3.88251e-019 1.21329e-020 -67.2544 5.12896 -58.3263 -12.8312 39.3456 -111.527 6.54677 9.62745 -1.04006 23.6309 -3.67215 -16.6608 48.7763 -20.3376 48.085 -17.3939 12.2714 144.901 -4.62501 10.5394 -23.2445 16.4294 3.93212 -9.17792 -10.373 30.6059 8.72607 -3.03522 26.3975 0.726004 66.6798 -60.8257 48.3204 
-3.64532 95.0123 -48.3686 3.16838 -3.11527 84.3937 -20.8011 -18.6423 -1.2372 4.23139 19.669 0.637357 13.6815 -1.42781 -0.879824 3.59075 13.8319 -3.33838 -0.732859 5.54954 -3.54613 -2.06837 10.991 -6.47762 8.56055 -11.0884 -19.2439 -5.03302e-021 -3.88251e-019 1.21329e-020 -67.6534 5.63187 -56.8022 -13.0567 40.3374 -112.196 6.54677 9.62745 -1.04006 23.8877 -3.88087 -17.322 47.5258 -16.2745 46.7193 -16.8247 13.461 143.951 -7.61492 10.9028 -21.143 15.2002 3.00873 -8.42295 -11.3035 28.9459 7.41046 -3.84807 22.3689 0.855024 54.8557 -57.9793 38.0118 
-4.20034 96.2643 -49.6865 1.84901 -2.45884 83.4114 -21.4941 -19.4835 -1.12598 4.27954 18.0565 -2.15172 14.991 -3.0847 -0.745579 6.23884 21.3565 -4.09353 -0.665245 5.14808 -3.55767 -1.85156 10.221 -6.51661 7.58741 -10.9323 -18.6549 -5.03302e-021 -3.88251e-019 1.21329e-020 -68.3262 5.758 -54.3366 -13.3035 41.4695 -113.223 6.54677 9.62745 -1.04006 24.1259 -4.06722 -17.8961 47.1484 -12.6718 45.0925 -15.9459 15.3104 142.594 -10.3683 11.0765 -18.4367 14.3503 1.79005 -7.51542 -12.4235 27.7207 6.11242 -5.34889 19.0687 1.11273 44.4477 -54.3262 28.8245 
-4.78891 97.5031 -51.0092 0.751072 -2.03162 82.5702 -21.9263 -20.5724 -1.1007 4.81517 18.0558 -5.19052 15.5485 -3.98831 -0.650881 7.68257 25.1511 -4.45389 -0.127747 4.92554 -3.59365 -1.465 9.72698 -6.59571 6.35375 -11.1432 -18.045 -5.03302e-021 -3.88251e-019 1.21329e-020 -69.0906 5.5682 -51.2554 -13.4734 42.5716 -114.518 6.54677 9.62745 -1.04006 24.313 -4.1955 -18.2717 47.6587 -9.86674 43.0805 -14.771 17.553 141.044 -12.3705 11.0182 -15.4383 14.003 0.42651 -6.46463 -13.5648 26.8819 4.73073 -7.3534 17.0882 1.46424 36.1479 -50.435 21.2862 
-5.40907 98.6584 -52.3165 -0.0379604 -1.86228 81.9854 -22.0762 -21.8784 -1.02509 5.83356 19.9149 -7.89398 15.0341 -4.05992 -0.625067 7.74025 25.2782 -4.15796 0.811824 4.90741 -3.66374 -0.940897 9.57697 -6.76032 5.03681 -11.7557 -17.4938 -5.03302e-021 -3.88251e-019 1.21329e-020 -69.7458 5.22173 -47.9238 -13.4824 43.4461 -115.915 6.54677 9.62745 -1.04006 24.4418 -4.25066 -18.4033 48.8452 -7.97073 40.6533 -13.4483 19.8048 139.536 -13.3594 10.8021 -12.5905 14.0881 -0.942587 -5.29406 -14.503 26.4506 3.12266 -9.6237 16.619 1.91797 29.9221 -46.8395 15.3402 
-6.02504 99.65 -53.5554 -0.461491 -1.87665 81.7058 -22.0501 -23.2119 -0.74543 7.33763 23.3404 -10.0088 13.5567 -3.2312 -0.670834 6.63128 22.2736 -3.31033 1.89343 5.05207 -3.77172 -0.349954 9.74621 -7.00698 3.84376 -12.6595 -17.0814 -5.03302e-021 -3.88251e-019 1.21329e-020 -70.1769 4.92976 -44.6434 -13.3093 43.9461 -117.202 6.54677 9.62745 -1.04006 24.5338 -4.24704 -18.3365 50.3565 -6.87009 37.9016 -12.2179 21.6993 138.276 -13.4329 10.5543 -10.2858 14.412 -2.20558 -4.08526 -15.0431 26.5075 1.34778 -11.9019 17.3719 2.47571 25.5965 -43.9722 10.9239 
